<?xml version="1.0" encoding="UTF-8" standalone="no"?>
<svg width="52px" height="59px" viewBox="0 0 52 59" version="1.1" xmlns="http://www.w3.org/2000/svg" xmlns:xlink="http://www.w3.org/1999/xlink">
    <!-- Generator: Sketch 40.2 (33826) - http://www.bohemiancoding.com/sketch -->
    <title>Page 1</title>
    <desc>Created with Sketch.</desc>
    <defs>
        <polygon id="path-1" points="51.8792542 0.52219403 0.000134958113 0.52219403 0.000134958113 58.1191763 51.8792542 58.1191763"></polygon>
    </defs>
    <g id="Design" stroke="none" stroke-width="1" fill="none" fill-rule="evenodd">
        <g id="Home-Page-Newest-YAY!!!" transform="translate(-308.000000, -474.000000)">
            <g id="Hero" transform="translate(2.000000, 0.000000)">
                <g id="Sketchs" transform="translate(48.000000, 474.000000)">
                    <g id="Page-1" transform="translate(258.000000, 0.000000)">
                        <g id="Group-5" transform="translate(19.389831, 44.910448)" fill-opacity="0.37" fill="#FFFFFF">
                            <path d="M1.69722712,0.425768657 C1.62231186,0.5015 1.54475254,0.580753731 1.46190508,0.663529851 C1.33322712,0.791216418 1.2116,0.912738806 1.09702373,1.02721642 C0.89519322,1.22887313 0.732142373,1.62690299 0.732142373,1.91926119 L0.732142373,2.71972388 C0.732142373,3.01208209 0.901362712,3.08341045 1.10936271,2.87823134 C1.45221017,2.53920149 1.86115932,2.13324627 2.39702373,1.59696269 C2.78482034,1.2103806 3.09858305,0.878395522 3.36387119,0.583395522 C3.5595322,0.366768657 3.47492203,0.187126866 3.18319322,0.187126866 L2.45695593,0.187126866 C2.16522712,0.187126866 1.82590508,0.294559701 1.69722712,0.425768657" id="Fill-1"></path>
                            <path d="M4.00858305,0.567632836 C3.66661695,0.920752239 3.25326102,1.34079701 2.69624407,1.89821493 C1.95854915,2.63439403 1.47380339,3.15306567 1.08248136,3.59072239 C0.887701695,3.80822985 0.732583051,4.22387164 0.732583051,4.51622985 L0.732583051,5.45758806 C0.732583051,5.74994627 0.892108475,5.81158806 1.08512542,5.5932 C1.23143051,5.42764776 1.36539661,5.27178209 1.49848136,5.11943881 C2.02641356,4.51094627 2.52526102,3.93591642 3.63136271,2.83164776 C4.75949831,1.70360299 5.30858305,1.12593134 5.85678644,0.546498507 C5.91319322,0.48661791 5.9696,0.426737313 6.02688814,0.365976119 C6.12119322,0.267349254 5.9616678,0.186334328 5.66905763,0.186334328 L4.90404068,0.186334328 C4.61231186,0.186334328 4.21129492,0.358050746 4.00858305,0.567632836" id="Fill-3"></path>
                            <path d="M7.17644068,0.562525373 C6.93494915,0.807331343 6.72342373,1.02395821 6.51366102,1.23794328 C5.96016949,1.80328657 5.40667797,2.36774925 4.28735593,3.48698806 C3.17772881,4.5947791 2.58369492,5.1275403 2.00905085,5.64180896 C1.7340678,5.88925672 1.45379661,6.14110746 1.11711864,6.4537194 C0.903830508,6.65361493 0.731966102,7.05340597 0.731966102,7.34576418 L0.731966102,8.1356597 C0.731966102,8.42801791 0.899423729,8.49758507 1.10742373,8.29328657 C1.91033898,7.50691343 2.4100678,7.05780896 2.89128814,6.62631642 C3.47915254,6.0997194 4.08728814,5.55462985 5.22159322,4.42130149 C6.34620339,3.2976597 6.90233898,2.72879403 7.45847458,2.16080896 C7.89298305,1.71786866 8.33013559,1.27140597 9.03786441,0.561644776 C9.24410169,0.354704478 9.17535593,0.186510448 8.88274576,0.186510448 L8.07630508,0.186510448 C7.78457627,0.186510448 7.38091525,0.354704478 7.17644068,0.562525373" id="Fill-5"></path>
                            <path d="M10.1634441,0.255020896 C10.1414102,0.277035821 10.1193763,0.299050746 10.0955797,0.322826866 C8.97978305,1.43678209 8.40690169,1.97922985 7.83313898,2.52079701 C7.25320678,3.06764776 6.67327458,3.6162597 5.54425763,4.74254328 C4.41788475,5.86970746 3.86968136,6.4491403 3.32324068,7.02857313 C2.78120678,7.60272239 2.24005424,8.17599104 1.12337627,9.29170746 C1.05639322,9.35863284 0.990291525,9.42379701 0.927715254,9.4863194 C0.819308475,9.59463284 0.732054237,9.85088657 0.732054237,10.0595881 C0.732054237,10.2682896 0.890698305,10.5254239 1.08018983,10.6443045 C1.2688,10.7640657 1.55964746,10.7262 1.7368,10.5474388 C1.83815593,10.4452896 1.94391864,10.3387373 2.05761356,10.2260209 C3.18839322,9.09621493 3.73571525,8.51590149 4.2848,7.93470746 C4.82507119,7.3623194 5.36622373,6.78905075 6.47937627,5.67685672 C7.59517288,4.5620209 8.16805424,4.02221493 8.74181695,3.48064776 C9.32174915,2.93203582 9.90168136,2.38518507 11.0298169,1.2562597 C11.2906983,0.996483582 11.5207322,0.766647761 11.7269695,0.56058806 C11.9332068,0.353647761 11.8635797,0.186334328 11.5718508,0.186334328 L10.7610034,0.186334328 C10.4692746,0.186334328 10.2013424,0.218035821 10.1634441,0.255020896" id="Fill-7"></path>
                            <path d="M9.2795322,4.04792836 C8.74543051,4.65289851 8.24129492,5.22440597 7.13343051,6.33043582 C6.02732881,7.43646567 5.45444746,7.93840597 4.84895593,8.46940597 C4.25315932,8.9924806 3.63797288,9.53316716 2.50102373,10.6700179 C2.40054915,10.770406 2.3036,10.8672716 2.21193898,10.9597343 C2.05329492,11.120003 2.10793898,11.4026746 2.32387119,11.5990478 C2.38997288,11.6589284 2.45431186,11.718809 2.5195322,11.7804507 C2.73193898,11.9803463 3.01749831,12.0261373 3.1655661,11.8755552 C3.25017627,11.7892567 3.33919322,11.6994358 3.43614237,11.6034507 C4.54312542,10.4974209 5.11512542,9.9954806 5.72061695,9.4636 C6.31641356,8.94140597 6.9316,8.4007194 8.06854915,7.26386866 C9.20461695,6.1287791 9.74665085,5.51500299 10.2701763,4.92324179 C10.804278,4.31827164 11.3092949,3.74676418 12.416278,2.64073433 C12.4665153,2.5914209 12.5132271,2.54386866 12.5608203,2.49719701 C12.6401424,2.41794328 12.7044814,2.1176597 12.7044814,1.82530149 L12.7044814,1.03540597 C12.7044814,0.743047761 12.5334983,0.670838806 12.3246169,0.874256716 C12.0787186,1.1137791 11.8019729,1.38676418 11.4820407,1.70730149 C10.3450915,2.84239104 9.80305763,3.45616716 9.2795322,4.04792836" id="Fill-9"></path>
                            <path d="M5.77517288,12.4255761 C6.42561356,11.7924269 6.86100339,11.3952776 7.28405424,11.0086955 C7.86663051,10.4768149 8.46771525,9.92644179 9.60025763,8.79487463 C10.7424949,7.65450149 11.2730712,7.02487463 11.7869017,6.41638209 C11.968461,6.19975522 12.149139,5.98665075 12.3527322,5.75417313 C12.5448678,5.53402388 12.7043932,5.12366567 12.7043932,4.83130746 L12.7043932,3.97448657 C12.7043932,3.68212836 12.5386983,3.61432239 12.3359864,3.82390448 C11.6071051,4.58121791 11.1831729,5.08227761 10.7751051,5.56484478 C10.2577492,6.18038209 9.76771525,6.75981493 8.66602034,7.86056119 C7.55463051,8.97187463 6.96324068,9.5116806 6.39212203,10.032994 C5.81130847,10.5631134 5.20934237,11.1134866 4.07768136,12.2432925 C3.98161356,12.3392776 3.8908339,12.4308597 3.80446102,12.5180388 C3.65374915,12.6703821 3.77008814,12.7954269 4.06181695,12.7954269 L4.86913898,12.7954269 C5.1608678,12.7954269 5.56629153,12.628994 5.77517288,12.4255761" id="Fill-11"></path>
                            <path d="M8.54192542,12.5687612 C8.60802712,12.4921493 8.6723661,12.4164179 8.73670508,12.3415672 C9.2584678,11.7286716 9.75114576,11.151 10.8546034,10.0484925 C11.5006373,9.40301493 11.958061,8.9398209 12.3361627,8.555 C12.5406373,8.34629851 12.7045695,7.94122388 12.7045695,7.64886567 L12.7045695,6.81053731 C12.7045695,6.5181791 12.5776542,6.41250746 12.4216542,6.57277612 C12.3255864,6.67140299 12.2321627,6.76738806 12.1396203,6.86337313 C11.5887729,7.42959701 11.0388068,7.99670149 9.91948475,9.1150597 C8.77989153,10.2536716 8.24578983,10.8797761 7.73019661,11.4847463 C7.47901017,11.7788657 7.23399322,12.0659403 6.92463729,12.4067313 C6.72897627,12.6224776 6.80301017,12.7950746 7.09473898,12.7950746 L7.81745085,12.7950746 C8.11006102,12.7950746 8.43351864,12.6946866 8.54192542,12.5687612" id="Fill-13"></path>
                            <path d="M11.2096136,12.2161701 C11.2369356,12.1871104 11.2686644,12.146603 11.2810034,12.1254687 C11.2862915,12.1157821 11.292461,12.1043343 11.3021559,12.0884836 C11.4370034,11.8630507 11.5542237,11.6411403 11.6617492,11.4024985 C11.8054102,11.0863642 12.0169356,10.8257075 12.2698847,10.6134836 C12.4937492,10.4259164 12.7043932,10.0789612 12.7043932,9.78660299 L12.7043932,9.74609552 C12.7043932,9.45461791 12.5316475,9.37800597 12.320122,9.57966269 C12.0398508,9.84736418 11.7208,10.1590955 11.3435797,10.5368716 C10.4780881,11.4007373 9.95456271,11.9440657 9.51035932,12.4116627 C9.30941017,12.623006 9.38432542,12.795603 9.67605424,12.795603 L10.1176136,12.795603 C10.4093424,12.795603 10.7680542,12.6828866 10.9108339,12.5375881 C10.9963254,12.450409 11.0809356,12.3614687 11.161139,12.269006 C11.1805288,12.246991 11.1963932,12.2302597 11.2096136,12.2161701" id="Fill-15"></path>
                        </g>
                        <g id="Group-19" transform="translate(0.000000, 0.358755)">
                            <mask id="mask-2" fill="white">
                                <use xlink:href="#path-1"></use>
                            </mask>
                            <g id="Clip-18"></g>
                            <path d="M9.26402034,8.8191791 C9.77344407,9.47874627 10.7561559,11.4160597 11.811139,10.9273284 C13.5297831,10.1286269 10.9068678,8.47134328 10.3110712,7.99141791 C10.0466644,7.77655224 9.75934237,7.59867164 9.47554576,7.41022388 C9.09920678,7.16101493 8.52985085,6.58862687 8.06449492,6.52346269 C7.02185085,6.37552239 8.11825763,7.59074627 8.28307119,7.76774627 C8.54307119,8.04425373 8.80307119,8.32164179 9.06218983,8.59726866 C9.0948,8.63161194 9.39357966,8.9098806 9.26402034,8.8191791 M42.2417153,39.9060149 C41.7534441,39.3274627 41.1382576,37.9290746 40.2392746,37.9880746 C39.7307322,38.0224179 39.3332407,38.4750448 39.3667322,38.9840299 C39.4028678,39.5185522 39.8699864,39.761597 40.2595458,40.0337015 C41.1329695,40.6430746 41.9764271,41.2788657 42.8163593,41.9331493 C43.1530373,42.1964478 43.5478847,41.8098657 43.3134441,41.4673134 C42.9564949,40.946 42.5995458,40.4264478 42.2417153,39.9060149 C42.1218508,39.7633582 42.7881559,40.7003134 42.2417153,39.9060149 M5.39927458,23.9927463 C4.86869831,23.9355075 4.33900339,23.8791493 3.80930847,23.8210299 C3.27608814,23.763791 2.83981695,24.0579104 2.3647661,24.2727761 C1.82537627,24.5175821 1.46049492,24.5290299 0.855884746,24.5536866 C0.624969492,24.5642537 0.246867797,24.5105373 0.0873423729,24.725403 C-0.177945763,25.083806 0.219545763,25.2986716 0.512155932,25.3515075 C1.04008814,25.4474925 1.60591864,25.6280149 2.13913898,25.5822239 C2.51900339,25.5505224 3.1888339,25.1806716 3.54137627,25.302194 C4.06402034,25.4800746 4.64571525,25.787403 5.19832542,25.8428806 C6.39256271,25.973209 6.59263051,24.1239552 5.39927458,23.9927463 M51.5673424,24.6179701 C50.8217153,24.5131791 50.0769695,24.4083881 49.3313424,24.303597 C49.2696475,24.294791 49.4018508,24.3071194 49.3965627,24.3071194 C48.6773763,24.1107463 47.926461,23.8113433 47.1896475,23.7056716 C46.4413763,23.5040149 45.7706644,24.2877463 46.0976475,24.9948657 C46.3532407,25.547 46.9040881,25.5355522 47.4170373,25.547 C48.1556136,25.5637313 48.9091729,25.6341791 49.6442237,25.5575672 C50.1633424,25.5038507 50.6815797,25.4501343 51.1998169,25.3964179 C51.2958847,25.3858507 51.462461,25.3999403 51.5532407,25.3594328 C51.9754102,25.315403 51.9956814,24.6778507 51.5673424,24.6179701 M11.1985966,38.3385522 C10.4943932,39.2244328 9.82544407,40.0918209 9.20144407,41.0349403 C9.08598644,41.2084179 8.82598644,41.4840448 8.83744407,41.7156418 C8.85859661,42.1823582 9.33012203,42.0731642 9.56368136,41.8794328 C9.77520678,41.7033134 10.8839525,40.7866119 10.8839525,40.7866119 C11.4057153,40.423806 11.927478,40.061 12.4492407,39.698194 C13.6099864,38.8915672 12.0596814,37.2554179 11.1985966,38.3385522 M43.4623932,6.41867164 C42.9450373,6.95407463 42.4276814,7.48947761 41.9112068,8.0248806 C41.9305966,8.00198507 41.9499864,7.97908955 41.9693763,7.95707463 C41.3674102,8.42819403 40.5204271,8.8808209 40.0550712,9.49371642 C39.5879525,10.1013284 40.0489017,11.0092239 40.8165627,10.9916119 C41.3286305,10.9792836 41.5798169,10.5689254 41.8556814,10.2096418 C42.2849017,9.6478209 42.7687661,9.10713433 43.1169017,8.49159701 C43.3680881,8.04601493 43.6192746,7.60131343 43.8713424,7.15573134 C43.9180542,7.07383582 44.0246983,6.94791045 44.0432068,6.85280597 C44.2512068,6.48383582 43.7479525,6.12191045 43.4623932,6.41867164 M25.2923593,5.0158806 C25.5743932,6.19852239 27.3882237,5.74853731 27.1070712,4.56501493 C26.9598847,3.94507463 26.8118169,3.32513433 26.6646305,2.70519403 C26.6646305,2.7421791 26.6646305,2.77916418 26.6655119,2.81614925 C26.6267322,2.19885075 26.5879525,1.58155224 26.5491729,0.965134328 C26.5280203,0.634029851 26.1622576,0.34519403 25.8758169,0.652522388 C25.6942576,0.846253731 25.6792746,1.28655224 25.6263932,1.52607463 C25.3945966,2.56341791 25.0402915,3.96444776 25.2923593,5.0158806 C25.4122237,5.5178209 25.2720881,4.92958209 25.2923593,5.0158806 M29.5651729,45.5664925 C30.0842915,45.3947761 30.0437492,44.6638806 29.5299186,44.5124179 C28.8327661,44.3081194 28.1003593,44.2182985 27.3767661,44.1654627 C25.8405627,44.0527463 24.1659864,44.086209 22.6844271,44.5617313 C22.1988,44.717597 22.2058508,45.375403 22.6844271,45.5286269 C23.3789356,45.7505373 24.1139864,45.851806 24.8375797,45.9116866 C25.7815119,45.9909403 26.7324949,45.9874179 27.6755458,45.8993582 C27.8482915,45.8843881 29.5651729,45.716194 29.5651729,45.5664925 C29.726461,45.5136567 29.5651729,45.5656119 29.5651729,45.5664925 M27.1493763,49.5282985 C26.2089695,49.3222388 25.1257831,49.437597 24.2461898,49.8268209 C23.330461,50.2327761 24.1968339,50.9178806 24.7274102,51.0834328 C25.6440203,51.3511343 26.7280881,51.4101343 27.6305966,51.0570149 C28.7208339,50.6299254 27.8535797,49.6876866 27.1493763,49.5282985 C26.8197492,49.455209 27.4790034,49.6022687 27.1493763,49.5282985 M40.0647661,31.0181493 C40.4322915,30.3858806 39.5333085,29.845194 39.0838169,30.3946866 C38.8476136,30.6835224 38.6122915,30.9723582 38.3760881,31.261194 C37.2444271,32.6490149 35.8897831,33.8519104 34.8392068,35.3031343 C33.1611051,37.6208657 31.4160203,40.6122537 31.5244271,43.5622537 C31.5455797,44.1478507 32.0594102,44.6726866 32.6657831,44.3600746 C33.1804949,44.0958955 33.2060542,43.2892687 33.3065288,42.7996567 C33.5656475,41.5377612 34.0856475,40.2776269 34.7096475,39.1522239 C35.4949356,37.7362239 36.3110712,36.4109254 37.2532407,35.0944328 C38.3002915,33.7814627 39.2195458,32.4693731 40.0647661,31.0181493 M19.9892407,44.5969552 C21.7263932,44.3961791 19.7486305,39.9007313 19.3687661,39.1478209 C18.3975119,37.2272388 17.1265966,35.4228955 15.7305288,33.7867463 C13.3552746,30.9406567 11.6013763,27.8532836 11.7538508,24.017403 C11.8146644,22.4763582 12.019139,21.0568358 12.4844949,19.5730299 C13.2406983,17.1610746 14.8985288,15.3215075 16.8013763,13.7417164 C19.6243593,11.5912985 23.6856475,9.81425373 27.3141898,10.438597 C31.2036136,10.8110896 35.6615119,13.3137463 37.9354102,16.4636418 C39.267139,18.3084925 40.0215797,20.7486269 40.2392746,22.9985522 C40.3150712,23.7866866 40.4093763,24.552806 40.4428678,25.3444627 C40.4437492,25.9265373 40.4093763,26.5033284 40.3476814,27.081 C40.3062576,27.4746269 40.114122,27.9193284 40.1326305,28.3094328 C40.0400881,28.7867164 40.6394102,29.0975672 40.9796136,28.7611791 C41.1981898,28.542791 41.2933763,28.1007313 41.4035458,27.8330299 C41.8019186,26.7516567 41.9411729,25.6130448 42.0028678,24.4709104 C42.1183254,22.347791 41.6644271,20.1454179 40.9399525,18.1614328 C39.8056475,15.7961493 38.4404271,13.8614776 36.2934441,12.2913731 C34.9996136,11.3464925 33.5912068,10.5592388 32.1140542,9.93929851 C28.0139864,8.22037313 23.7288339,8.36479104 19.7089695,10.2554328 C16.8339864,11.6071493 13.9660542,13.6976866 12.3549356,16.4953433 C10.8266644,19.1477015 10.3569017,22.0695224 10.3286983,25.0741194 C10.3075458,27.4094627 10.7164949,29.8249403 11.9971051,31.8212537 C13.3358847,33.9073881 15.1752746,35.5602687 16.5828,37.587403 C17.5143932,38.9285522 18.4028,40.3146119 18.8055797,41.9164179 C18.9703932,42.5724627 18.8840203,44.7237612 19.9892407,44.5969552 M20.8820542,48.729597 C20.9243593,48.8440746 20.8697153,48.6732388 20.8820542,48.729597 C20.8802915,48.7260746 20.8802915,48.7243134 20.8820542,48.729597 M19.8755458,50.2362985 C20.4211051,50.5559552 21.094461,50.7109403 21.7219864,50.5964627 C22.3169017,50.4881493 22.1106644,49.9210448 21.8321559,49.6260448 C21.5668678,49.3442537 21.2610373,49.1073731 20.9816475,48.8396716 C20.8917492,48.6388955 20.9552068,48.2593582 20.9305288,48.0427313 C20.8732407,47.5134925 20.834461,46.5712537 20.4924949,46.1300746 C20.2712746,45.6404627 19.7310034,45.8799851 19.5785288,46.2630448 C19.2638847,47.0529403 19.1660542,47.9053582 19.1493085,48.7489701 C19.1413763,49.3759552 19.2682915,49.8761343 19.8755458,50.2362985 C20.2369017,50.4476418 19.7785966,50.1790597 19.8755458,50.2362985 M32.4110712,51.7843881 C31.3560881,51.6373284 31.7482915,53.8414627 31.467139,54.3715821 C31.0308678,54.7114925 30.5910712,55.047 30.1495119,55.3816269 C29.6674102,55.746194 29.0998169,56.3846269 28.4863932,56.3687761 C27.1467322,56.336194 25.8061898,56.3036119 24.4665288,56.3714179 C24.2435458,56.3828657 24.0196814,56.3969552 23.7966983,56.4145672 C23.3295797,56.4506716 23.3331051,56.2745522 23.0316814,55.9478507 C22.6192068,55.5005075 22.1732407,55.0822239 21.6929017,54.7097313 C21.4390712,54.5142388 21.0195458,54.3821493 20.9649017,54.052806 C20.9146644,53.7498806 20.8635458,53.4478358 20.8133085,53.1440299 C20.7348678,52.6720299 20.6652407,51.6258806 19.8799525,51.965791 C19.3555458,52.1929851 19.5326983,53.0823881 19.5362237,53.5279701 C19.5397492,53.8987015 19.3960881,54.6683433 19.6375797,55.001209 C19.9777831,55.7884627 20.9428678,56.513194 21.587139,57.0380299 C22.5918847,57.8569851 23.2440881,58.0260597 24.5414441,58.0859403 C25.9419186,58.1511045 27.3441559,58.106194 28.7446305,58.0718507 C29.8207661,58.0445522 30.5787322,57.0688507 31.3737153,56.412806 C31.8408339,56.0271045 32.9319525,55.4908209 32.9257831,54.7784179 C32.9204949,54.1831343 33.2712746,51.906791 32.4110712,51.7843881 C32.0973085,51.7403582 32.6957492,51.8248955 32.4110712,51.7843881 M33.094122,48.7833134 C33.0950034,48.2056418 33.2192746,45.1200299 31.9086983,45.6712836 C30.7232746,46.1697015 31.8646305,48.5147313 31.0211729,49.0809552 C30.6263254,49.3468955 29.7520203,49.6559851 29.8569017,50.2750448 C29.959139,50.8764925 30.6148678,50.8227761 31.063478,50.7681791 C32.1924949,50.6316866 33.1452407,49.9950149 33.094122,48.7833134" id="Fill-17" fill="#FFFFFF" mask="url(#mask-2)"></path>
                        </g>
                    </g>
                </g>
            </g>
        </g>
    </g>
</svg>