<?xml version="1.0" encoding="UTF-8" standalone="no"?>
<svg width="57px" height="58px" viewBox="0 0 57 58" version="1.1" xmlns="http://www.w3.org/2000/svg" xmlns:xlink="http://www.w3.org/1999/xlink">
    <!-- Generator: Sketch 40.2 (33826) - http://www.bohemiancoding.com/sketch -->
    <title>Page 1</title>
    <desc>Created with Sketch.</desc>
    <defs>
        <polygon id="path-1" points="56.9018 58 1.68130267e-13 58 1.68130267e-13 0.723 56.902 0.723 56.902 58 56.9018 0.72305 -0.000134082015 0.72305 -0.000134082015 58.0003 56.9018 58.0003"></polygon>
    </defs>
    <g id="Design" stroke="none" stroke-width="1" fill="none" fill-rule="evenodd">
        <g id="Home-Page-Newest-YAY!!!" transform="translate(-62.000000, -475.000000)">
            <g id="Hero" transform="translate(2.000000, 0.000000)">
                <g id="Sketchs" transform="translate(48.000000, 474.000000)">
                    <g id="Page-1" transform="translate(12.000000, 0.000000)">
                        <g id="Group-31" transform="translate(0.000000, 3.276600)" fill-opacity="0.365206069" fill="#FFFFFF">
                            <path d="M1.6752,1.001 C1.5342,1.132 1.3992,1.256 1.2652,1.379 C1.1712,1.466 1.0762,1.554 0.9782,1.644 C0.8202,1.79 0.6922,2.356 0.6922,2.908 L0.6922,2.979 C0.6922,3.531 1.0122,3.667 1.4142,3.288 C1.7352,2.985 2.0112,2.731 2.2812,2.482 C2.6532,2.141 3.0342,1.789 3.5262,1.317 C3.9252,0.936 3.7962,0.621 3.2442,0.621 L3.0822,0.621 C2.5302,0.621 1.9012,0.792 1.6752,1.001" id="Fill-1"></path>
                            <path d="M4.5732,1.3379 C3.8232,2.1299 3.3742,2.6749 2.9412,3.2039 C2.5092,3.7309 2.0922,4.2379 1.3892,4.9809 C1.0092,5.3819 0.6922,6.1459 0.6922,6.6979 L0.6922,6.7959 C0.6922,7.3489 0.9052,7.5949 1.1652,7.3419 C1.3122,7.1989 1.4672,7.0459 1.6332,6.8809 C2.9312,5.5819 3.5262,4.8569 4.1012,4.1539 C4.6792,3.4499 5.2252,2.7839 6.4722,1.5369 C6.6362,1.3729 6.7902,1.2209 6.9352,1.0769 C7.1922,0.8239 6.9532,0.6209 6.4012,0.6209 L6.2692,0.6209 C5.7172,0.6209 4.9532,0.9369 4.5732,1.3379" id="Fill-3"></path>
                            <path d="M8.9057,0.6211 C8.6737,0.6211 8.1547,0.9221 7.7567,1.3051 C7.5257,1.5271 7.2727,1.7751 6.9917,2.0571 C5.6987,3.3491 5.0897,4.0551 4.5007,4.7361 C3.9047,5.4291 3.3407,6.0821 2.0867,7.3361 C1.9087,7.5141 1.7437,7.6791 1.5907,7.8341 C1.3177,8.1091 1.5457,8.3351 2.0977,8.3351 L2.2087,8.3351 C2.7607,8.3351 3.5267,8.0191 3.9097,7.6211 C4.7057,6.7951 5.1787,6.2471 5.6367,5.7171 C6.2347,5.0241 6.7977,4.3711 8.0517,3.1171 C8.5757,2.5931 8.9967,2.1891 9.3587,1.8541 C9.7637,1.4801 9.8807,1.1381 9.6607,0.9771 C9.4407,0.8171 9.1377,0.6211 8.9057,0.6211" id="Fill-5"></path>
                            <path d="M6.9399,7.9053 C7.0809,7.7573 7.2139,7.6153 7.3479,7.4733 C7.8349,6.9563 8.3219,6.4383 9.1349,5.6143 C9.5229,5.2203 10.1559,4.5873 10.5519,4.2033 C11.3689,3.4113 11.8899,2.9563 12.4359,2.4793 C12.8249,2.1403 13.2239,1.7913 13.7369,1.3113 C14.1399,0.9343 14.0119,0.6213 13.4599,0.6213 L13.2729,0.6213 C12.7209,0.6213 12.0899,0.7873 11.8629,0.9873 C11.7229,1.1103 11.5869,1.2293 11.4489,1.3493 C10.7709,1.9413 10.0699,2.5533 8.7789,3.8443 C7.4989,5.1263 6.8769,5.7853 6.2559,6.4443 C5.9199,6.8013 5.5809,7.1613 5.1369,7.6203 C4.7519,8.0163 4.8849,8.3353 5.4369,8.3353 L5.5299,8.3353 C6.0829,8.3353 6.7139,8.1433 6.9399,7.9053" id="Fill-7"></path>
                            <path d="M10.6933,7.6201 C10.9613,7.3491 11.2653,7.0431 11.6213,6.6861 C12.9173,5.3901 13.5193,4.6761 14.1013,3.9831 C14.6893,3.2851 15.2443,2.6251 16.4953,1.3741 C16.6293,1.2401 16.7553,1.1151 16.8753,0.9961 C17.0853,0.7881 16.8093,0.6211 16.2573,0.6211 L16.1303,0.6211 C15.5783,0.6211 14.8153,0.9381 14.4363,1.3411 C13.7793,2.0371 13.3603,2.5341 12.9533,3.0171 C12.3663,3.7161 11.8103,4.3761 10.5603,5.6261 C9.2803,6.9061 8.6553,7.5581 8.0283,8.2121 C8.0083,8.2321 7.9893,8.2531 7.9693,8.2731 C7.9363,8.3071 8.3583,8.3351 8.9103,8.3351 L8.9933,8.3351 C9.5453,8.3351 10.3053,8.0141 10.6933,7.6201" id="Fill-9"></path>
                            <path d="M13.1655,8.2998 C13.1765,8.2888 13.1875,8.2788 13.2005,8.2658 C14.4745,6.9908 15.1185,6.3648 15.7635,5.7368 C16.4095,5.1098 17.0555,4.4808 18.3285,3.2078 C19.0975,2.4388 19.6195,1.8698 20.0365,1.3888 C20.3975,0.9708 20.2395,0.6208 19.6965,0.6208 C19.1545,0.6208 18.4185,0.9568 18.0385,1.3578 C18.0145,1.3828 17.9905,1.4078 17.9665,1.4338 C17.5845,1.8328 16.9515,2.4638 16.5595,2.8538 C15.7375,3.6698 15.2265,4.1668 14.7175,4.6618 C14.0685,5.2938 13.4205,5.9238 12.1395,7.2048 C11.9335,7.4118 11.7435,7.6008 11.5665,7.7738 C11.2485,8.0858 11.4345,8.3348 11.9875,8.3348 L12.1305,8.3348 C12.6835,8.3348 13.1465,8.3198 13.1655,8.2998" id="Fill-11"></path>
                            <path d="M16.8808,7.7891 C17.0478,7.5961 17.2008,7.4141 17.3528,7.2341 C17.9418,6.5371 18.4978,5.8781 19.7478,4.6271 C21.0298,3.3451 21.6628,2.7011 22.2988,2.0551 C22.5248,1.8241 22.7518,1.5931 23.0098,1.3311 C23.3978,0.9381 23.2648,0.6211 22.7128,0.6211 L22.6038,0.6211 C22.0508,0.6211 21.5188,0.7071 21.4158,0.8121 C21.3528,0.8761 21.2908,0.9401 21.2288,1.0031 C20.5948,1.6471 19.9658,2.2891 18.6878,3.5661 C17.3918,4.8621 16.7888,5.5761 16.2058,6.2681 C15.8558,6.6831 15.5138,7.0871 15.0308,7.6091 C14.6568,8.0151 14.7908,8.3351 15.3428,8.3351 L15.3998,8.3351 C15.9518,8.3351 16.6178,8.0931 16.8808,7.7891" id="Fill-13"></path>
                            <path d="M20.3247,7.6357 C20.4827,7.4807 20.6517,7.3127 20.8367,7.1287 C21.2287,6.7407 21.8627,6.1067 22.2517,5.7147 C23.0787,4.8817 23.5787,4.3657 24.0787,3.8497 C24.7027,3.2047 25.3277,2.5607 26.5977,1.2907 C26.7167,1.1717 26.8287,1.0607 26.9367,0.9547 C27.1247,0.7697 26.8297,0.6207 26.2777,0.6207 L26.1467,0.6207 C25.5947,0.6207 24.8297,0.9387 24.4427,1.3307 C23.8367,1.9447 23.4187,2.3747 23.0017,2.8047 C22.3777,3.4497 21.7527,4.0937 20.4847,5.3637 C19.2187,6.6277 18.5737,7.2517 17.9317,7.8747 C17.8527,7.9517 17.7737,8.0277 17.6937,8.1057 C17.5627,8.2327 17.9047,8.3347 18.4567,8.3347 L18.6107,8.3347 C19.1627,8.3347 19.9317,8.0227 20.3247,7.6357" id="Fill-15"></path>
                            <path d="M23.0312,8.21 C23.0692,8.21 23.1262,8.184 23.1582,8.151 C23.1892,8.12 23.5312,7.779 23.9182,7.386 C24.7512,6.537 25.2472,5.998 25.7302,5.474 C26.3262,4.827 26.9412,4.159 28.2032,2.897 C28.8742,2.226 29.3692,1.733 29.7802,1.325 C30.1732,0.936 30.0452,0.621 29.4922,0.621 L29.3612,0.621 C28.8092,0.621 28.0872,0.893 27.7512,1.229 C27.5652,1.414 27.3632,1.615 27.1422,1.836 C25.8592,3.12 25.2322,3.8 24.6272,4.457 C24.1552,4.971 23.6702,5.497 22.8582,6.324 C22.4712,6.719 21.8652,7.322 21.5102,7.682 C21.1552,8.041 21.3182,8.335 21.8702,8.335 L21.9622,8.335 C22.5142,8.335 22.9622,8.307 22.9622,8.272 C22.9622,8.238 22.9932,8.21 23.0312,8.21" id="Fill-17"></path>
                            <path d="M26.7236,7.6182 C26.9216,7.4072 27.1016,7.2132 27.2776,7.0232 C27.7506,6.5112 28.2366,5.9842 29.0496,5.1562 C29.4366,4.7632 30.0686,4.1282 30.4696,3.7492 C31.2826,2.9792 31.8216,2.5562 32.3856,2.1122 C32.7036,1.8622 33.0286,1.6062 33.4036,1.2862 C33.8246,0.9282 33.7036,0.6212 33.1516,0.6212 L32.8516,0.6212 C32.2986,0.6212 31.7626,0.6922 31.6546,0.7782 C31.5886,0.8302 31.5236,0.8822 31.4576,0.9322 C30.7406,1.4972 29.9976,2.0812 28.6936,3.3862 C27.4086,4.6712 26.7816,5.3492 26.1746,6.0062 C25.7806,6.4332 25.3676,6.8792 24.7686,7.4962 C24.3836,7.8922 24.5156,8.2102 25.0686,8.2102 L25.1636,8.2102 C25.7166,8.2102 26.4166,7.9462 26.7236,7.6182" id="Fill-19"></path>
                            <path d="M30.332,7.5088 C30.676,7.1688 31.078,6.7698 31.577,6.2708 C32.869,4.9798 33.479,4.2768 34.069,3.5968 C34.669,2.9058 35.236,2.2548 36.49,0.9998 C36.556,0.9348 36.62,0.8708 36.682,0.8098 C36.788,0.7048 36.426,0.6208 35.873,0.6208 L35.759,0.6208 C35.206,0.6208 34.445,0.9418 34.069,1.3458 C33.607,1.8418 33.268,2.2338 32.937,2.6128 C32.338,3.3038 31.771,3.9548 30.517,5.2098 C29.249,6.4768 28.605,7.1038 27.963,7.7288 C27.881,7.8088 27.8,7.8878 27.717,7.9698 C27.581,8.1028 27.918,8.2098 28.471,8.2098 L28.618,8.2098 C29.171,8.2098 29.938,7.8968 30.332,7.5088" id="Fill-21"></path>
                            <path d="M33.0498,8.0537 L33.2048,7.8987 C34.4928,6.6107 35.1108,5.9197 35.7088,5.2517 C36.2928,4.5987 36.8978,3.9227 38.1548,2.6647 C38.7108,2.1107 39.1468,1.6797 39.5158,1.3187 C39.9098,0.9317 39.7848,0.6207 39.2328,0.6207 L39.0848,0.6207 C38.5318,0.6207 37.8618,0.8407 37.5888,1.1127 C37.4358,1.2647 37.2718,1.4277 37.0948,1.6047 C35.8068,2.8927 35.1888,3.5827 34.5908,4.2507 C34.0068,4.9047 33.4018,5.5797 32.1448,6.8377 C31.8908,7.0917 31.6628,7.3187 31.4548,7.5257 C31.0728,7.9047 31.2098,8.2097 31.7628,8.2097 L31.8938,8.2097 C32.4458,8.2097 32.9638,8.1397 33.0498,8.0537" id="Fill-23"></path>
                            <path d="M36.6464,7.5527 C36.8784,7.3187 37.0884,7.1067 37.2984,6.8957 C37.9314,6.2567 38.5654,5.6177 39.8364,4.3467 C41.1014,3.0827 41.7474,2.4597 42.3904,1.8387 C42.5924,1.6437 42.7954,1.4467 43.0174,1.2317 C43.3644,0.8947 43.1954,0.6207 42.6424,0.6207 L42.4924,0.6207 C41.9394,0.6207 41.4594,0.6527 41.4204,0.6907 C41.3964,0.7137 41.3724,0.7377 41.3484,0.7597 C40.7004,1.3847 40.0504,2.0127 38.7764,3.2857 C37.5014,4.5607 36.8684,5.1997 36.2334,5.8397 C35.7684,6.3087 35.2994,6.7817 34.5814,7.5017 C34.1904,7.8937 34.3214,8.2097 34.8744,8.2097 L34.9934,8.2097 C35.5454,8.2097 36.2854,7.9157 36.6464,7.5527" id="Fill-25"></path>
                            <path d="M44.1152,1.6406 C43.7632,1.9466 43.4542,2.1976 43.1422,2.4476 C42.4322,3.0176 41.6992,3.6066 40.3972,4.9086 C39.1162,6.1886 38.4872,6.8356 37.8552,7.4856 C37.7392,7.6046 37.6242,7.7246 37.5032,7.8476 C37.3082,8.0476 37.5962,8.2096 38.1492,8.2096 L38.2442,8.2096 C38.7972,8.2096 39.5552,7.8896 39.9422,7.4956 C40.1772,7.2556 40.4412,6.9896 40.7522,6.6766 C41.1412,6.2856 41.7722,5.6516 42.1732,5.2706 C42.9852,4.4976 43.5212,4.0666 44.0812,3.6176 C44.2092,3.5136 44.3392,3.4106 44.4722,3.3006 C44.6872,3.1256 44.8582,2.5346 44.8582,1.9816 L44.8582,1.9706 C44.8582,1.4176 44.5332,1.2786 44.1152,1.6406" id="Fill-27"></path>
                            <path d="M44.1289,4.8984 C43.7949,5.2144 43.4199,5.5754 42.9449,6.0424 C42.5519,6.4294 41.9199,7.0614 41.5329,7.4564 C41.5219,7.4674 41.5109,7.4794 41.4989,7.4904 C41.1129,7.8844 41.2519,8.2104 41.8049,8.2104 L41.8969,8.2104 C42.4489,8.2104 42.9859,8.1194 43.0969,8.0074 C43.2069,7.8964 43.6129,7.4894 44.0079,7.1014 C44.0529,7.0574 44.0969,7.0134 44.1399,6.9714 C44.5339,6.5854 44.8579,5.8284 44.8579,5.2754 L44.8579,5.2144 C44.8579,4.6614 44.5289,4.5184 44.1289,4.8984" id="Fill-29"></path>
                        </g>
                        <g id="Group-34" transform="translate(0.000000, 0.276600)">
                            <path d="M41.0078,31.6953 L40.4088,42.0113 L36.6238,46.6083 C36.4638,46.8023 36.4578,47.0883 36.6238,47.2893 C36.8128,47.5173 37.1498,47.5503 37.3778,47.3623 L42.3548,43.2643 C42.5748,43.0813 42.7128,42.7953 42.6948,42.4853 L42.6918,42.4483 L42.0678,31.6953 C42.0318,31.0343 41.0458,31.0313 41.0078,31.6953 M51.0438,32.3673 C51.2178,32.5283 51.4378,32.6083 51.6568,32.6083 C52.4718,32.6083 52.8658,31.6043 52.2708,31.0493 C52.1358,30.9243 51.9988,30.8003 51.8588,30.6793 C51.4838,30.3543 50.9138,30.3943 50.5898,30.7713 C50.2648,31.1473 50.3058,31.7163 50.6818,32.0413 C50.8038,32.1473 50.9248,32.2563 51.0438,32.3673 M55.3408,35.2623 C55.0148,34.5523 54.1918,33.2303 54.0908,33.1303 C53.8218,32.7273 53.2778,32.6193 52.8758,32.8873 C52.4738,33.1563 52.3648,33.7003 52.6338,34.1013 C53.6848,35.6733 53.6268,35.5793 54.5688,37.9783 C57.3318,49.5303 48.2378,58.2613 37.4558,55.5663 C32.3228,53.9243 29.2298,50.8393 28.1078,45.0243 C26.0288,34.2473 36.4468,24.8563 47.8228,30.0363 L47.8378,30.0423 C47.9318,30.0973 48.9358,30.6753 48.9388,30.6753 C49.3578,30.9163 49.8938,30.7693 50.1328,30.3493 C50.3728,29.9293 50.2278,29.3953 49.8078,29.1553 C49.4888,28.9723 48.7378,28.5293 48.4108,28.3823 C40.8458,25.0103 34.0158,26.8443 30.0488,31.3803 C28.5558,33.2743 27.8638,34.1023 26.6488,37.1183 C24.7348,42.2843 25.9788,49.6833 30.4938,53.8913 C32.2058,55.6033 35.1208,57.0913 37.1798,57.5133 C38.8658,57.8613 39.2568,57.9283 41.4998,58.0003 C41.6758,57.9983 43.4808,57.8823 43.7828,57.8433 C45.7518,57.4503 45.5488,57.5093 46.4668,57.1733 C52.0108,55.1903 56.0288,50.7913 56.7608,44.5653 C56.8258,44.0193 56.8308,44.2193 56.9018,42.3623 C56.7378,38.4643 56.3848,38.0033 55.3408,35.2623 M37.6868,5.8403 C37.7658,4.8023 37.6488,2.8113 37.3578,1.3493 C37.2028,0.5703 36.0798,0.5673 35.9258,1.3493 C35.6788,2.5893 35.5018,4.6063 35.5968,5.8403 C35.6908,7.1193 37.5908,7.1293 37.6868,5.8403 M8.3048,5.8403 C8.4518,6.9693 10.0978,6.9703 10.2438,5.8403 C10.3938,4.6963 10.3198,2.4513 10.0658,1.3493 C9.8708,0.5143 8.6778,0.5143 8.4838,1.3493 C8.2288,2.4543 8.1568,4.6953 8.3048,5.8403 M24.6988,33.4323 C24.6988,33.4323 23.3948,33.3003 21.4358,33.1993 C20.4558,33.1353 19.3138,33.0863 18.0898,33.0493 C17.5948,33.0293 17.0788,33.0123 16.5638,32.9973 C16.5718,31.5183 16.5418,29.9663 16.5228,28.4053 C16.4808,26.8193 16.4378,25.2363 16.3988,23.7383 C18.4728,23.7553 20.6498,23.7723 22.8408,23.7903 C25.0778,23.7933 27.3108,23.7813 29.4248,23.7623 C29.4498,24.2713 29.4828,24.7583 29.5288,25.1803 C29.6588,26.3233 29.8778,27.0853 29.8778,27.0853 C29.9148,27.2123 30.0148,27.3193 30.1508,27.3583 C30.3628,27.4193 30.5848,27.2973 30.6458,27.0853 C30.6458,27.0853 30.8638,26.3233 30.9938,25.1803 C31.0408,24.7533 31.0738,24.2603 31.0998,23.7473 C32.8478,23.7283 34.4858,23.7053 35.9258,23.6823 C39.4938,23.6283 41.8728,23.1863 41.8728,23.1863 C42.0248,23.1583 42.1508,23.0393 42.1818,22.8783 C42.2208,22.6693 42.0818,22.4683 41.8728,22.4283 C41.8728,22.4283 39.4938,21.9873 35.9258,21.9323 C34.5058,21.9103 32.8928,21.8873 31.1708,21.8693 C31.1788,21.5783 31.1858,21.2863 31.1878,20.9923 C31.1988,19.4683 30.9658,17.9463 30.8898,16.8033 C30.7888,15.6613 30.6698,14.8993 30.6698,14.8993 C30.6268,14.7903 30.5388,14.6963 30.4208,14.6503 C30.1948,14.5623 29.9418,14.6743 29.8538,14.8993 C29.8538,14.8993 29.7118,15.6613 29.6108,16.8033 C29.5348,17.9463 29.3238,19.4683 29.3358,20.9923 C29.3378,21.2803 29.3448,21.5663 29.3528,21.8513 C27.2598,21.8343 25.0528,21.8223 22.8408,21.8253 C20.6338,21.8433 18.5248,21.8603 16.4368,21.8783 C16.4098,20.8883 16.3848,19.9553 16.3628,19.1203 C16.3208,17.8533 16.2618,16.7993 16.1998,16.0593 C16.1348,15.3213 15.9928,14.8993 15.9928,14.8993 C15.9748,14.7483 15.8558,14.6233 15.6968,14.6023 C15.5098,14.5793 15.3378,14.7123 15.3148,14.8993 C15.3148,14.8993 15.1568,15.3213 15.0918,16.0593 C15.0298,16.7993 14.9708,17.8533 14.9288,19.1203 C14.9058,19.9593 14.8818,20.8963 14.8558,21.8893 C12.9658,21.9053 11.2978,21.9073 9.7558,21.9473 C6.1868,22.0013 3.8078,22.2853 3.8078,22.2853 C3.5718,22.3133 3.3768,22.4993 3.3478,22.7453 C3.3138,23.0343 3.5198,23.2963 3.8078,23.3303 C3.8078,23.3303 6.1868,23.6143 9.7558,23.6683 C11.2838,23.7073 13.0388,23.7103 14.9098,23.7253 C14.8698,25.2273 14.8278,26.8143 14.7858,28.4053 C14.7668,29.9543 14.7358,31.4943 14.7448,32.9623 C14.5808,32.9603 14.4188,32.9543 14.2538,32.9543 C12.9478,32.9393 11.6428,33.0073 10.4178,33.0353 C9.1938,33.0773 8.0518,33.1383 7.0718,33.1913 C5.1128,33.3133 3.8078,33.4563 3.8078,33.4563 C3.6098,33.4773 3.4468,33.6343 3.4248,33.8393 C3.3998,34.0763 3.5698,34.2893 3.8078,34.3153 C3.8078,34.3153 5.1128,34.4583 7.0718,34.5803 C8.0518,34.6333 9.1938,34.6943 10.4178,34.7363 C11.6428,34.7633 12.9478,34.8323 14.2538,34.8173 C14.4198,34.8173 14.5828,34.8113 14.7488,34.8093 C14.7508,35.8443 14.7558,36.8193 14.7938,37.6893 C14.8528,38.9563 14.9698,40.0103 15.0788,40.7493 C15.1858,41.4883 15.2908,41.9103 15.2908,41.9103 C15.3228,42.0403 15.4248,42.1483 15.5638,42.1823 C15.7638,42.2323 15.9668,42.1103 16.0178,41.9103 C16.0178,41.9103 16.1228,41.4883 16.2298,40.7493 C16.3378,40.0103 16.4558,38.9563 16.5148,37.6893 C16.5528,36.8093 16.5568,35.8233 16.5598,34.7743 C17.0768,34.7593 17.5928,34.7423 18.0898,34.7223 C19.3138,34.6853 20.4558,34.6353 21.4358,34.5723 C23.3948,34.4703 24.6988,34.3393 24.6988,34.3393 C25.2418,34.2833 25.2418,33.4873 24.6988,33.4323 M45.6028,14.7303 C45.5528,14.4243 45.3118,14.1683 44.9878,14.1163 C44.5828,14.0503 44.2008,14.3253 44.1358,14.7303 C44.1358,14.7303 44.0368,15.3373 43.9658,16.2483 C43.8838,17.1583 43.8208,18.3723 43.8188,19.5863 C43.8068,20.8003 43.8238,22.0133 43.8678,22.9243 C43.9118,23.8353 43.9708,24.4413 43.9708,24.4413 C44.0728,25.5223 45.6628,25.5223 45.7678,24.4413 C45.7678,24.4413 45.8258,23.8353 45.8698,22.9243 C45.9138,22.0133 45.9318,20.8003 45.9188,19.5863 C45.9168,18.3723 45.8548,17.1583 45.7728,16.2483 C45.7008,15.3373 45.6028,14.7303 45.6028,14.7303 M23.0838,44.4153 C23.0838,44.4153 21.9308,44.2743 20.2008,44.1663 C18.4718,44.0413 16.1648,43.9433 13.8578,43.8793 C11.5528,43.8063 9.2458,43.9093 7.5168,44.0633 C5.7868,44.2293 4.6338,44.4763 4.6338,44.4763 C4.4478,44.5163 4.2938,44.6613 4.2508,44.8583 C4.1928,45.1273 4.3648,45.3913 4.6338,45.4493 C4.6338,45.4493 5.7868,45.6963 7.5168,45.8623 C9.2458,46.0163 11.5528,46.1193 13.8578,46.0473 C16.1648,45.9823 18.4718,45.8843 20.2008,45.7593 C21.9308,45.6513 23.0838,45.5103 23.0838,45.5103 C23.7248,45.4313 23.7298,44.4943 23.0838,44.4153 M2.3548,43.8373 C2.3098,43.7993 2.2268,43.7273 2.2268,43.7093 C2.1768,43.6483 2.0458,43.4643 2.0018,43.2473 C1.9908,43.1903 1.9828,43.1313 1.9798,43.0673 L1.9778,42.9693 L1.9828,42.7863 C1.9888,42.5293 1.9958,42.2513 2.0038,41.9543 C2.0138,41.3603 2.0248,40.6903 2.0368,39.9593 C2.0908,37.0353 2.1008,33.1353 2.0908,29.2373 C2.0788,27.2883 2.0988,25.3393 2.0618,23.5103 C2.0418,21.6823 1.9888,19.9773 1.9428,18.5153 C1.9178,17.0523 1.8328,15.8353 1.6978,14.9813 C1.5678,14.1293 1.4358,13.6413 1.4358,13.6413 C1.3988,13.5093 1.2948,13.3983 1.1528,13.3593 C0.9388,13.3003 0.7178,13.4273 0.6588,13.6413 C0.6588,13.6413 0.5248,14.1293 0.3968,14.9813 C0.2618,15.8353 0.1758,17.0523 0.1508,18.5153 C0.1058,19.9773 0.0518,21.6823 0.0318,23.5103 C-0.0052,25.3393 0.0148,27.2883 0.0028,29.2373 C-0.0062,33.1353 0.0038,37.0353 0.0568,39.9593 C0.0688,40.6903 0.0798,41.3603 0.0898,41.9543 C0.0978,42.2513 0.1058,42.5293 0.1118,42.7863 L0.1178,42.9803 C0.1248,43.0703 0.1318,43.1583 0.1378,43.2443 C0.1578,43.4143 0.1918,43.5763 0.2338,43.7253 C0.4218,44.3353 0.7108,44.7033 0.9738,44.9683 C1.1258,45.1213 1.1838,45.1563 1.2298,45.1933 C1.2748,45.2293 1.2998,45.2493 1.2998,45.2493 C1.6638,45.5333 2.1938,45.4883 2.5028,45.1363 C2.8228,44.7713 2.7858,44.2163 2.4218,43.8953 C2.4218,43.8953 2.3988,43.8763 2.3548,43.8373 M0.2658,11.2163 C0.2858,11.5653 0.5448,11.8503 0.8848,11.9253 C1.0178,12.0123 1.1658,12.0773 1.3368,12.0793 C1.3368,12.0793 4.0238,12.1143 8.0538,12.1683 C12.0828,12.1903 17.4558,12.2193 22.8288,12.2493 C28.2018,12.3053 33.5748,12.2253 37.6048,12.2223 C39.6198,12.2213 41.2988,12.1903 42.4748,12.1703 C43.6498,12.1503 44.3208,12.1393 44.3208,12.1393 C44.8138,12.1313 45.2148,11.7333 45.2238,11.2373 C45.2318,10.7313 44.8278,10.3133 44.3208,10.3053 C44.3208,10.3053 43.6498,10.2953 42.4748,10.2753 C41.2988,10.2553 39.6198,10.2233 37.6048,10.2223 C33.5748,10.2193 28.2018,10.1393 22.8288,10.1963 C17.4558,10.2253 12.0828,10.2553 8.0538,10.2773 C5.0838,10.3173 2.8488,10.3463 1.8748,10.3593 C1.8758,10.3503 2.0828,5.3323 2.0848,5.3283 C2.1878,4.9783 2.4838,4.6893 2.8088,4.6153 C2.9558,4.5723 3.3958,4.5863 3.5638,4.5853 C4.3758,4.5703 5.5798,4.5503 6.3868,4.4853 C7.5638,4.3933 7.5658,2.6543 6.3868,2.5633 C5.6918,2.5083 2.9558,2.3733 2.2748,2.5673 C1.2378,2.8333 0.3168,3.6783 0.0868,4.9363 C-0.0322,5.8693 0.2148,10.2803 0.2658,11.2163 M12.4488,4.1673 C16.0458,4.9313 28.5838,4.5353 30.3808,4.4313 C31.3768,4.3703 32.2068,4.2973 32.7878,4.2273 C33.3688,4.1613 33.7008,4.1053 33.7008,4.1053 C34.3518,3.9943 34.3548,3.0523 33.7008,2.9433 C33.7008,2.9433 33.3688,2.8873 32.7878,2.8213 C32.2068,2.7523 31.3768,2.6783 30.3808,2.6173 C29.3808,2.5593 16.2548,2.0733 12.4488,2.8823 C11.7558,3.0303 11.7588,4.0203 12.4488,4.1673 M39.7318,4.3413 C40.9488,4.5233 43.0248,4.5873 43.0248,4.5873 C43.0248,4.5873 43.2238,4.6423 43.2828,4.6753 C43.5088,4.7753 43.7448,5.0153 43.8428,5.3383 C43.8428,5.3383 44.0258,7.9163 44.2148,9.1963 C44.2558,9.4773 44.4778,9.7123 44.7738,9.7553 C45.1348,9.8073 45.4708,9.5573 45.5238,9.1963 C45.7068,7.9513 45.7888,6.7863 45.8508,5.6043 C45.9418,3.9163 44.7368,2.6753 43.1738,2.4913 C42.4688,2.4603 40.7988,2.5483 39.7318,2.7073 C38.8018,2.8443 38.7938,4.2023 39.7318,4.3413" id="Fill-32" fill="#FFFFFF"></path>
                            <mask id="mask-2" fill="white">
                                <use xlink:href="#path-1"></use>
                            </mask>
                            <g id="Clip-33"></g>
                        </g>
                    </g>
                </g>
            </g>
        </g>
    </g>
</svg>