<?xml version="1.0" encoding="UTF-8" standalone="no"?>
<svg width="64px" height="57px" viewBox="0 0 64 57" version="1.1" xmlns="http://www.w3.org/2000/svg" xmlns:xlink="http://www.w3.org/1999/xlink">
    <!-- Generator: Sketch 40.2 (33826) - http://www.bohemiancoding.com/sketch -->
    <title>Page 1</title>
    <desc>Created with Sketch.</desc>
    <defs></defs>
    <g id="Design" stroke="none" stroke-width="1" fill="none" fill-rule="evenodd">
        <g id="Home-Page-Newest-YAY!!!" transform="translate(-181.000000, -474.000000)" fill="#FFFFFF">
            <g id="Hero" transform="translate(2.000000, 0.000000)">
                <g id="Sketchs" transform="translate(48.000000, 474.000000)">
                    <g id="Page-1" transform="translate(131.000000, 0.000000)">
                        <g id="Group-6" transform="translate(12.000000, 23.000000)" fill-opacity="0.37">
                            <path d="M7.2609,2.4926 C7.0689,2.6886 6.8579,2.9016 6.6219,3.1376 C5.3499,4.4106 4.7099,5.0426 4.0699,5.6746 C3.5659,6.1716 3.0619,6.6686 2.2529,7.4746 C1.8619,7.8646 1.4219,8.6126 1.2969,9.1506 C1.2399,9.3966 1.1849,9.6446 1.1339,9.8926 C1.0229,10.4336 1.2669,10.5646 1.6619,10.1786 C1.9269,9.9186 2.2249,9.6236 2.5709,9.2776 C3.8429,8.0056 4.4829,7.3736 5.1229,6.7416 C5.7649,6.1076 6.4069,5.4736 7.6829,4.1986 C8.9719,2.9096 9.5909,2.2166 10.1889,1.5466 C10.3299,1.3876 10.4699,1.2316 10.6179,1.0686 C10.8559,0.8056 10.6429,0.7756 10.1299,0.9796 C9.7049,1.1486 9.2679,1.3136 8.8259,1.4806 C8.3089,1.6766 7.6119,2.1336 7.2609,2.4926" id="Fill-1"></path>
                            <path d="M11.4938,1.0414 C11.1408,1.3814 10.8438,1.6614 10.5478,1.9404 C9.8888,2.5614 9.2288,3.1844 7.9488,4.4634 C6.6568,5.7554 6.0468,6.4584 5.4558,7.1384 C4.9808,7.6864 4.5268,8.2094 3.7338,9.0274 C3.3498,9.4244 2.7158,10.0564 2.3258,10.4464 C1.9758,10.7974 1.6838,11.0914 1.4248,11.3524 C1.0358,11.7434 0.6408,12.5024 0.5238,13.0424 C0.4698,13.2944 0.4118,13.5464 0.3498,13.7974 C0.2168,14.3334 0.0858,14.7774 0.0858,14.7964 C0.0858,14.8144 0.4028,14.5134 0.7918,14.1204 C1.0748,13.8364 1.3208,13.5874 1.5658,13.3404 C2.1948,12.7044 2.8278,12.0654 4.0928,10.8004 C5.3868,9.5064 5.9978,8.8024 6.5888,8.1214 C7.1888,7.4314 7.7548,6.7784 9.0088,5.5234 C10.2738,4.2604 10.9258,3.6454 11.5768,3.0314 C12.0068,2.6264 12.4368,2.2214 13.0388,1.6334 C13.4338,1.2474 13.4178,0.7704 12.9908,0.6124 C12.5628,0.4554 11.8918,0.6584 11.4938,1.0414" id="Fill-3"></path>
                            <path d="M13.715,2.0297 C13.049,2.7457 12.632,3.2607 12.23,3.7597 C11.657,4.4697 11.117,5.1397 9.871,6.3857 C8.611,7.6467 7.938,8.2557 7.287,8.8447 C6.623,9.4457 5.936,10.0677 4.649,11.3547 C3.368,12.6347 2.746,13.2937 2.124,13.9527 C1.734,14.3647 1.343,14.7777 0.787,15.3477 C0.402,15.7427 0.086,16.5077 0.086,17.0597 L0.086,17.1847 C0.086,17.7377 0.221,18.0497 0.387,17.8827 C0.484,17.7857 0.584,17.6857 0.69,17.5797 C1.97,16.2997 2.592,15.6407 3.215,14.9817 C3.829,14.3317 4.444,13.6807 5.709,12.4157 C6.97,11.1547 7.643,10.5457 8.294,9.9567 C8.958,9.3557 9.645,8.7337 10.932,7.4467 C12.235,6.1437 12.826,5.4107 13.397,4.7017 C13.804,4.1967 14.2,3.7077 14.844,3.0177 C15.221,2.6147 15.306,2.0517 14.996,1.7757 C14.686,1.4987 14.091,1.6257 13.715,2.0297" id="Fill-5"></path>
                            <path d="M6.361,12.8988 L6.277,12.9838 C5.006,14.2548 4.365,14.8828 3.724,15.5128 C3.08,16.1448 2.437,16.7768 1.162,18.0518 C0.965,18.2488 0.785,18.4308 0.619,18.6018 C0.322,18.9078 0.086,19.6078 0.086,20.1608 L0.086,20.4108 C0.086,20.9638 0.374,21.0688 0.744,20.6588 C1.119,20.2428 1.579,19.7558 2.222,19.1128 C3.493,17.8418 4.134,17.2138 4.775,16.5838 C5.074,16.2908 5.373,15.9968 5.736,15.6378 C6.129,15.2498 6.445,14.4868 6.445,13.9338 L6.445,13.8148 C6.445,13.2618 6.408,12.8528 6.361,12.8988" id="Fill-7"></path>
                            <path d="M9.5368,11.8431 L12.4308,8.9461 C13.7178,7.6591 14.3388,6.9711 14.9398,6.3061 C15.3968,5.8001 15.8678,5.2791 16.6468,4.4801 C17.0328,4.0841 17.0498,3.6061 16.7148,3.3541 C16.3798,3.1011 15.8168,3.1811 15.4328,3.5771 C14.7188,4.3141 14.2648,4.8161 13.8258,5.3011 C13.2388,5.9511 12.6298,6.6251 11.3708,7.8851 L7.4168,11.8431 C7.0258,12.2341 7.1578,12.5501 7.7098,12.5501 L7.8298,12.5501 C8.3818,12.5501 9.1458,12.2341 9.5368,11.8431" id="Fill-9"></path>
                            <path d="M12.6901,11.85 C13.0521,11.494 13.4781,11.072 14.0171,10.533 C15.2991,9.25 15.9211,8.59 16.5431,7.93 C17.1581,7.278 17.7721,6.625 19.0391,5.359 C19.1761,5.221 19.3061,5.091 19.4291,4.969 C19.6461,4.753 19.7371,4.571 19.6321,4.56 C19.5691,4.554 19.5071,4.545 19.4431,4.532 C19.2151,4.481 18.9971,4.422 18.7871,4.357 C18.4281,4.246 18.1081,4.169 18.0621,4.215 C18.0341,4.242 18.0071,4.269 17.9781,4.298 C16.6961,5.58 16.0741,6.241 15.4521,6.901 C14.8371,7.553 14.2231,8.205 12.9561,9.472 C11.6841,10.744 11.0401,11.369 10.3941,11.996 C10.2991,12.086 10.2051,12.178 10.1081,12.273 C9.9501,12.425 10.2701,12.55 10.8221,12.55 L10.9751,12.55 C11.5271,12.55 12.2961,12.238 12.6901,11.85" id="Fill-11"></path>
                            <path d="M5.8893,16.6029 C5.6953,16.8309 5.5203,17.0419 5.3493,17.2489 C4.7683,17.9519 4.2203,18.6159 2.9733,19.8639 C1.7253,21.1119 1.0593,21.6599 0.3553,22.2399 C0.3103,22.2769 0.2653,22.3139 0.2203,22.3509 C0.1463,22.4119 0.0863,22.9049 0.0863,23.4519 C0.0863,23.9979 0.3533,24.1989 0.6913,23.9119 C0.9043,23.7309 1.1053,23.5649 1.3083,23.3969 C2.0093,22.8209 2.7343,22.2239 4.0343,20.9239 C4.8393,20.1199 5.3743,19.5349 5.8023,19.0409 C6.1643,18.6229 6.4453,17.8289 6.4453,17.2759 L6.4453,16.9679 C6.4453,16.4159 6.1913,16.2489 5.8893,16.6029" id="Fill-13"></path>
                            <path d="M23.3908,3.6576 C23.1498,3.7966 22.9058,3.9276 22.6578,4.0456 C22.1588,4.2816 21.4348,4.7496 21.0588,5.1536 C20.7598,5.4756 20.4058,5.8436 19.9638,6.2846 C18.6938,7.5556 18.0488,8.1786 17.4028,8.8036 C16.7528,9.4316 16.1028,10.0606 14.8248,11.3406 C14.6028,11.5616 14.3998,11.7626 14.2118,11.9476 C13.8718,12.2816 14.0398,12.5506 14.5918,12.5506 L14.7348,12.5506 C15.2868,12.5506 15.7688,12.5156 15.8098,12.4746 C15.8338,12.4506 15.8588,12.4276 15.8848,12.4006 C17.1548,11.1316 17.8008,10.5066 18.4458,9.8816 C19.0958,9.2526 19.7458,8.6236 21.0248,7.3456 C22.3228,6.0476 22.9228,5.3296 23.5028,4.6346 C23.6758,4.4286 23.8508,4.2196 24.0408,4.0006 C24.3408,3.6536 24.5048,3.3376 24.4068,3.2686 C24.3088,3.2016 23.8698,3.3816 23.3908,3.6576" id="Fill-15"></path>
                            <path d="M2.9347,25.4242 L5.7367,22.6272 C5.8617,22.5012 5.9797,22.3832 6.0917,22.2692 C6.2877,22.0702 6.4457,21.4612 6.4457,20.9082 L6.4457,20.7242 C6.4457,20.1712 6.1437,20.0562 5.7627,20.4562 C5.4627,20.7722 5.1097,21.1332 4.6757,21.5672 L1.6957,24.5422 C1.3047,24.9322 1.2637,25.4472 1.6037,25.6932 C1.9447,25.9392 2.5437,25.8142 2.9347,25.4242" id="Fill-17"></path>
                            <path d="M27.4367,1.5531 C27.1357,1.8311 26.7997,2.1551 26.4137,2.5421 C25.1237,3.8311 24.4897,4.4711 23.8467,5.1181 C23.2207,5.7511 22.5867,6.3901 21.3287,7.6501 L17.1437,11.8421 C16.7537,12.2331 16.8847,12.5501 17.4367,12.5501 L17.5567,12.5501 C18.1087,12.5501 18.8727,12.2331 19.2627,11.8421 L22.3887,8.7101 C23.6497,7.4481 24.2847,6.8081 24.9137,6.1751 C25.5537,5.5291 26.1867,4.8891 27.4737,3.6031 C28.0667,3.0101 28.5287,2.5771 28.9267,2.2261 C29.3397,1.8601 29.3467,1.4331 28.9307,1.2411 C28.5137,1.0511 27.8407,1.1781 27.4367,1.5531" id="Fill-19"></path>
                            <path d="M3.8732,26.9711 C4.1672,27.0711 4.4932,27.0531 4.5932,26.9511 C4.6542,26.8901 4.7142,26.8291 4.7742,26.7691 C5.0742,26.4661 5.3732,26.1621 5.7402,25.7921 C6.1292,25.4011 6.4452,24.6361 6.4452,24.0831 L6.4452,23.9601 C6.4452,23.4071 6.4032,23.0031 6.3522,23.0551 C6.3212,23.0851 6.2902,23.1161 6.2582,23.1491 C4.9772,24.4291 4.3432,25.0711 3.7062,25.7151 C3.5742,25.8491 3.4402,25.9841 3.3012,26.1251 C3.0782,26.3511 2.9942,26.5901 3.1192,26.6551 C3.1942,26.6951 3.2702,26.7331 3.3492,26.7671 C3.5212,26.8441 3.6962,26.9101 3.8732,26.9711" id="Fill-21"></path>
                            <path d="M29.9708,2.7377 C29.5808,3.2067 29.0958,3.7467 28.3568,4.4857 C27.1168,5.7247 26.4368,6.2477 25.7138,6.8007 C24.9878,7.3597 24.2338,7.9377 22.9258,9.2467 C21.6438,10.5277 21.0208,11.1857 20.3968,11.8427 C20.2868,11.9607 20.1748,12.0777 20.0598,12.1977 C19.8738,12.3927 20.1718,12.5507 20.7238,12.5507 L20.7938,12.5507 C21.3468,12.5507 22.1028,12.2247 22.4868,11.8277 C22.8768,11.4237 23.3488,10.9437 23.9858,10.3067 C25.2258,9.0677 25.9078,8.5457 26.6278,7.9917 C27.3568,7.4327 28.1088,6.8547 29.4168,5.5467 C30.7258,4.2387 31.3038,3.4887 31.8648,2.7627 C31.8958,2.7227 31.9268,2.6837 31.9568,2.6447 C32.0078,2.5807 31.7198,2.4027 31.3188,2.2447 C30.9158,2.0857 30.3238,2.3127 29.9708,2.7377" id="Fill-23"></path>
                            <path d="M32.6564,3.1137 C32.5654,3.1937 32.4744,3.2737 32.3834,3.3537 C31.7124,3.9497 31.0164,4.5647 29.7274,5.8547 C28.4584,7.1237 27.8074,7.7417 27.1574,8.3597 C26.5034,8.9837 25.8464,9.6077 24.5674,10.8867 C24.2154,11.2387 23.9144,11.5467 23.6504,11.8207 C23.2684,12.2187 23.4144,12.5507 23.9674,12.5507 L24.0324,12.5507 C24.5854,12.5507 25.1654,12.4137 25.3294,12.2477 C25.4244,12.1517 25.5224,12.0517 25.6284,11.9477 C26.8934,10.6817 27.5424,10.0637 28.1924,9.4467 C28.8484,8.8227 29.5054,8.1977 30.7884,6.9157 C32.0464,5.6587 32.6924,5.0847 33.3784,4.4767 C33.5444,4.3307 33.7114,4.1827 33.8884,4.0237 C34.1694,3.7717 34.0774,3.3847 33.6724,3.1937 C33.2654,3.0037 32.8064,2.9797 32.6564,3.1137" id="Fill-25"></path>
                            <path d="M34.5353,4.5551 C34.3543,4.7641 34.1883,4.9581 34.0263,5.1511 C33.4383,5.8481 32.8823,6.5071 31.6303,7.7591 C30.3503,9.0381 29.7183,9.6831 29.0833,10.3281 C28.6553,10.7651 28.2233,11.2041 27.5893,11.8421 C27.2003,12.2341 27.3313,12.5501 27.8843,12.5501 L27.9993,12.5501 C28.5523,12.5501 29.2583,12.2891 29.5763,11.9651 C29.7803,11.7591 29.9683,11.5691 30.1533,11.3791 C30.7863,10.7361 31.4153,10.0951 32.6903,8.8201 C33.9873,7.5241 34.5913,6.8091 35.1733,6.1181 C35.3443,5.9171 35.5123,5.7181 35.6943,5.5081 C35.9853,5.1721 35.9893,4.6691 35.6643,4.4101 C35.3393,4.1521 34.8193,4.2291 34.5353,4.5551" id="Fill-27"></path>
                            <path d="M36.2013,6.057 C35.9973,6.243 35.8053,6.414 35.6103,6.588 C34.9423,7.187 34.2513,7.805 32.9643,9.093 C31.6843,10.371 31.0593,11.028 30.4343,11.682 C30.2993,11.825 30.1623,11.968 30.0193,12.118 C29.7893,12.357 30.0503,12.55 30.6023,12.55 L30.6813,12.55 C31.2333,12.55 31.9883,12.226 32.3723,11.828 C32.6403,11.552 32.9463,11.24 33.3193,10.863 C33.7073,10.47 34.3403,9.836 34.7353,9.451 C35.5613,8.647 36.0943,8.17 36.6123,7.706 C36.7763,7.56 36.9423,7.411 37.1183,7.251 C37.3963,6.998 37.4653,6.484 37.2333,6.132 C37.0033,5.78 36.5253,5.761 36.2013,6.057" id="Fill-29"></path>
                            <path d="M37.6388,7.9223 C37.5168,8.0303 37.3968,8.1353 37.2768,8.2413 C36.6008,8.8353 35.9038,9.4503 34.6108,10.7413 C34.1858,11.1663 33.8318,11.5223 33.5288,11.8333 C33.1418,12.2273 33.0288,12.5503 33.2728,12.5503 C33.5168,12.5503 33.7138,12.8293 33.7138,13.1733 C33.7138,13.5173 34.0248,13.4733 34.4098,13.0773 C34.7528,12.7273 35.1598,12.3153 35.6708,11.8023 C36.9288,10.5443 37.5788,9.9733 38.2668,9.3673 C38.3038,9.3343 38.3408,9.3023 38.3788,9.2693 C38.4418,9.2143 38.4088,8.8113 38.2728,8.3773 C38.1368,7.9433 37.8378,7.7453 37.6388,7.9223" id="Fill-31"></path>
                            <path d="M38.7824,10.5834 C38.7444,10.3494 38.3644,10.4454 37.9524,10.8134 C37.5044,11.2134 36.9744,11.7094 36.2784,12.4064 C34.9974,13.6864 34.3644,14.3304 33.7314,14.9764 C33.7224,14.9844 33.7184,15.5704 33.7164,16.1294 C33.7144,16.6824 33.9584,16.8834 34.2584,16.5784 C34.4484,16.3854 34.6244,16.2054 34.8004,16.0264 C35.4324,15.3844 36.0634,14.7424 37.3394,13.4674 C37.6744,13.1314 37.9674,12.8464 38.2284,12.5984 C38.6294,12.2174 38.9404,11.7154 38.9084,11.4634 C38.8884,11.3084 38.8684,11.1554 38.8464,11.0074 C38.8264,10.8634 38.8044,10.7224 38.7824,10.5834" id="Fill-33"></path>
                            <path d="M38.6124,13.7543 C38.4584,13.9063 38.2944,14.0693 38.1184,14.2463 C36.8484,15.5143 36.2044,16.1373 35.5574,16.7603 C35.2124,17.0933 34.8654,17.4293 34.4254,17.8603 C34.0314,18.2473 33.7144,19.0093 33.7144,19.5623 L33.7144,19.6783 C33.7144,20.2303 33.7874,20.6063 33.8764,20.5183 C33.9284,20.4663 33.9804,20.4133 34.0364,20.3583 C35.3074,19.0873 35.9544,18.4633 36.6004,17.8393 C37.1174,17.3403 37.6354,16.8403 38.4694,16.0133 C38.8624,15.6233 39.2074,15.2783 39.2424,15.2433 C39.2774,15.2083 39.2604,14.7533 39.2064,14.2253 C39.1534,13.6953 38.8854,13.4843 38.6124,13.7543" id="Fill-35"></path>
                            <path d="M38.7003,16.9086 C38.0713,17.4996 37.6163,17.8846 37.1453,18.2806 C36.4543,18.8636 35.7373,19.4656 34.4403,20.7626 C34.3113,20.8906 34.1903,21.0136 34.0763,21.1306 C33.8753,21.3346 33.7143,21.9476 33.7143,22.5006 L33.7143,22.6996 C33.7143,23.2526 34.0123,23.3646 34.3903,22.9626 C34.6953,22.6396 35.0543,22.2696 35.5013,21.8226 C36.7533,20.5716 37.4133,20.0156 38.1103,19.4286 C38.3703,19.2096 38.6353,18.9866 38.9313,18.7256 C39.3463,18.3616 39.6063,17.6436 39.5373,17.1356 C39.4683,16.6286 39.1033,16.5306 38.7003,16.9086" id="Fill-37"></path>
                            <path d="M39.3761,19.6166 C39.2041,19.7806 39.0431,19.9336 38.8841,20.0866 C38.2281,20.7106 37.5711,21.3346 36.2921,22.6136 C35.0221,23.8846 34.3741,24.5046 33.7261,25.1256 C33.7201,25.1306 33.7171,25.6826 33.7151,26.2196 C33.7141,26.7706 33.9471,26.9926 34.2371,26.7136 C34.4211,26.5366 34.5931,26.3716 34.7631,26.2086 C35.4171,25.5826 36.0711,24.9566 37.3531,23.6746 C38.6201,22.4086 39.2691,21.7906 39.9171,21.1736 C39.9751,21.1186 40.0331,21.0626 40.0931,21.0076 C40.1881,20.9156 40.1601,20.4666 40.0501,19.9976 C39.9391,19.5286 39.6471,19.3566 39.3761,19.6166" id="Fill-39"></path>
                            <path d="M40.3693,21.474 C40.3483,21.496 40.3263,21.518 40.3063,21.538 C39.6753,22.179 39.0423,22.82 37.7703,24.092 C36.4683,25.394 35.8783,26.126 35.3063,26.835 C35.2533,26.901 35.2003,26.965 35.1473,27.031 C35.0593,27.138 35.4353,27.184 35.9753,27.07 C36.1403,27.035 36.3063,26.995 36.4703,26.951 C37.0043,26.809 37.7173,26.304 38.0983,25.904 C38.3123,25.677 38.5543,25.429 38.8313,25.153 C39.4113,24.573 39.8583,24.123 40.2333,23.746 C40.6223,23.354 40.9363,22.969 40.9363,22.888 C40.9363,22.807 40.8063,22.45 40.6663,22.081 C40.5263,21.714 40.4043,21.439 40.3693,21.474" id="Fill-41"></path>
                        </g>
                        <path d="M8.7341,45.7504 C7.1151,45.5064 5.5261,45.0394 4.1771,44.1084 C3.1381,43.3784 2.4701,42.4604 2.3291,41.1914 C2.1571,39.6404 2.1341,38.0644 2.1401,36.5044 C2.1501,33.8694 1.9971,31.0284 2.5461,28.4344 C3.0531,26.0434 5.4281,25.0564 7.3561,23.9694 C8.0391,23.5854 7.6521,22.7364 6.9241,22.9464 C5.8751,23.2494 4.7971,23.6014 3.8251,24.1044 C1.4071,25.3544 0.4931,27.4084 0.2571,29.9984 C-0.0349,33.2054 -0.0869,36.4484 0.1461,39.6614 C0.2951,41.7404 0.5441,43.5364 2.2161,45.0084 C4.0011,46.5814 6.4271,47.2564 8.7431,47.5294 C9.4231,47.6094 9.4961,45.8654 8.7341,45.7504 M14.4211,22.1914 C15.3371,21.7544 14.8701,20.3184 13.8701,20.5154 C13.0451,20.6784 12.4181,21.2104 11.5051,21.0504 C8.8571,20.5864 7.5771,17.5534 7.3111,15.1704 C7.0031,12.4174 7.4791,9.3234 10.6441,8.7724 C13.5921,8.2594 16.1091,9.7144 16.5461,12.7704 C16.7391,14.1184 16.5661,15.5164 16.1341,16.8044 C15.8551,17.6364 14.9871,18.6484 15.0331,19.5384 C15.0981,20.8014 16.4741,20.4754 17.0091,19.7874 C17.7311,18.8584 18.0481,17.4994 18.2311,16.3634 C18.6571,13.7114 18.3531,10.5204 16.2471,8.6184 C14.2611,6.8234 10.9481,6.6734 8.5961,7.8154 C4.9911,9.5624 5.2141,15.0484 6.4391,18.2224 C7.7361,21.5504 10.9321,23.8334 14.4211,22.1914 M63.8551,33.8454 C63.7801,31.7204 63.8101,29.3334 63.0661,27.3024 C62.1811,24.8874 59.8921,23.6574 57.5811,22.9084 C57.3761,22.8414 57.0911,22.7134 56.8641,22.7554 C56.3741,22.8444 56.2621,23.5154 56.6911,23.7614 C56.8921,23.9784 57.3371,24.1314 57.5881,24.2754 C58.1321,24.5884 58.6701,24.9204 59.1731,25.2984 C60.8271,26.5394 61.3181,28.0684 61.4931,30.0104 C61.7691,33.0544 61.8581,36.1344 61.7541,39.1904 C61.7151,40.3404 61.7781,41.6934 61.1601,42.7104 C60.4311,43.9114 59.0481,44.5254 57.8021,45.0664 C55.6091,46.0184 54.7961,48.8194 58.3781,46.8124 C60.4941,45.6274 62.9711,44.5924 63.5351,42.0694 C64.1221,39.4504 63.9621,36.5074 63.8551,33.8454 C63.8191,32.8174 63.8961,34.8664 63.8551,33.8454 M54.1931,22.4454 C55.3661,21.8994 53.5971,22.6914 54.1931,22.4454 C56.7121,21.2724 58.1121,18.5394 58.5281,15.8984 C58.6791,14.9354 58.9311,9.9924 56.9931,10.7514 C56.0381,11.1264 56.5831,12.4604 56.5751,13.1864 C56.5751,14.2874 56.5541,15.3564 56.3071,16.4404 C55.7511,18.8814 54.0271,21.3434 51.2731,20.9004 C48.7391,20.1964 47.7431,16.8854 47.6181,14.5844 C47.4931,12.6714 47.9161,10.7614 49.4721,9.5314 C50.2531,8.9134 51.4811,8.6654 52.4611,8.7354 C53.0231,8.7764 53.6121,8.9484 54.1521,9.1024 C54.6531,9.2454 55.1971,9.7184 55.7281,9.4524 C56.3221,9.1544 56.3741,8.3014 55.8121,7.9434 C54.9891,7.3004 53.6711,7.1704 52.6771,7.1314 C41.7671,6.9634 45.6191,25.9744 54.1931,22.4454" id="Fill-43"></path>
                        <path d="M34.8957,47.5537 C35.0567,47.3717 35.1707,47.1727 35.2597,46.9747 C35.5297,46.5337 35.7057,45.7197 35.4997,45.0397 C35.3457,44.5427 34.6697,44.4757 34.4217,44.9307 C34.3127,45.1317 34.2177,45.5057 34.1347,45.6447 C33.9917,45.8447 33.9437,46.0797 33.8037,46.2777 C33.6627,46.4777 33.4607,46.6257 33.2867,46.7927 C32.8577,47.2047 32.2667,47.4287 31.6657,47.4107 C31.3797,47.4027 31.0897,47.3427 30.8287,47.2477 C29.6097,46.8067 28.9607,45.3267 29.4007,44.1157 C29.5567,43.6837 29.9687,43.1847 30.3397,42.9227 C30.7867,42.6057 31.3467,42.5217 31.8837,42.5637 C32.2527,42.5937 32.6697,42.6387 33.0247,42.7477 C33.3507,42.8477 33.7257,43.0937 34.0607,42.8697 C34.3157,42.6977 34.3827,42.3517 34.2117,42.0977 C34.2117,42.0977 34.1647,42.0267 34.0627,41.9057 C33.7137,41.5347 33.9087,41.6337 33.1317,41.1447 C29.6867,39.7147 26.2917,43.1097 27.7607,46.7227 C29.1427,49.5837 32.8147,50.0907 34.8957,47.5537 M36.4917,25.0297 C34.1617,26.7697 33.0797,27.1487 31.1737,26.8777 C30.8907,26.7957 30.5987,26.7537 30.3267,26.6427 C29.0617,26.2147 28.3497,25.6557 27.3497,25.0367 C26.9537,24.7927 26.4887,25.2327 26.7127,25.6397 C28.2367,28.4397 31.5677,29.8617 34.4597,28.5777 C35.2727,28.2667 36.5397,27.2597 37.1337,26.2597 C37.3237,25.9707 37.4187,25.8027 37.4187,25.8027 C37.7237,25.2767 37.1417,24.5847 36.4917,25.0297 M26.2497,23.7477 C26.6117,23.5137 26.5537,22.9237 26.0307,22.8377 C23.9787,22.5517 14.8787,25.3797 14.0657,28.6327 C11.5387,36.0287 10.9327,38.8887 11.1157,46.3117 C11.1217,46.4307 11.1227,46.5097 11.1417,46.6107 C11.4167,48.0287 12.3577,48.7787 13.5687,49.5827 C13.9797,49.8307 14.5407,50.1387 14.9807,50.3147 C15.5447,50.5317 16.0177,49.8297 15.6037,49.3887 C15.0957,48.8447 13.8147,47.6867 13.4177,47.1977 C13.2357,46.9927 13.1127,46.7137 13.0827,46.7047 C12.9707,46.7637 13.1447,43.1887 13.1497,43.0567 C13.1747,40.9827 13.6347,37.5677 13.6947,37.4667 C15.3907,30.5237 14.4927,34.1107 15.5137,30.8307 C16.5507,27.6937 15.8247,29.8437 16.2157,28.8147 C16.3397,28.6817 16.4147,28.5377 16.5907,28.3967 C17.2047,27.8187 18.0497,27.3287 18.8437,26.9097 C22.1057,25.1667 24.5727,24.8147 26.2497,23.7477 M53.6007,43.1857 C53.3407,41.2147 51.8917,33.2787 50.1847,28.3367 C50.1597,28.2837 50.0537,28.0807 50.0267,28.0277 C49.1827,26.2887 45.7077,25.0187 43.9227,24.4267 C41.6557,23.6757 39.7847,23.1857 38.3707,23.3387 C37.9187,23.4067 37.7877,24.0007 38.1747,24.2477 C38.1747,24.2487 38.6787,24.5717 39.5657,24.9237 C40.6357,25.3397 46.0437,26.7977 47.9347,28.6077 C48.0327,28.7397 48.1927,28.8847 48.2117,28.9807 C48.2137,28.9857 48.2567,29.0537 48.2607,29.0587 C49.5987,33.5197 49.4307,32.5477 51.0267,40.5797 C51.2487,41.6427 51.9657,45.4827 51.8997,46.5227 C51.8937,46.4567 51.8937,46.5627 51.8257,46.6677 C51.4957,47.2837 49.5577,48.8747 48.9937,49.4787 C48.5807,49.9237 49.0557,50.6237 49.6207,50.4027 C50.6207,50.0397 53.7727,48.4077 53.8327,46.3607 C53.7827,45.3607 53.8097,44.2747 53.6007,43.1857 M31.9987,22.5307 C32.9987,22.4457 33.8517,22.4367 35.1457,21.7397 C38.4967,20.0407 40.4577,15.7457 40.7807,12.0327 C40.8687,11.3477 40.8527,10.9017 40.8777,10.2777 C40.8407,9.1797 40.8607,8.2017 40.7787,7.3867 C40.6127,6.5257 40.3607,5.8847 40.0827,5.5847 C39.8137,5.2487 39.6007,5.0917 39.6007,5.0917 C39.5377,5.0457 39.4617,5.0057 39.3817,4.9827 C39.0087,4.8727 38.6167,5.0847 38.5047,5.4587 C38.5047,5.4587 38.4307,5.7117 38.4147,6.1427 C38.4427,6.5987 38.4147,7.1257 38.5597,7.7447 C38.6027,8.0897 38.6947,8.4707 38.7747,8.8907 C38.8367,9.3167 38.8347,9.7887 38.8627,10.2877 C38.8487,10.7137 38.8647,11.3937 38.7937,11.8807 C38.6747,13.5527 38.1337,15.5517 37.1667,17.1847 C33.2717,23.6177 26.6307,20.7347 25.1367,12.9067 C24.8537,11.4937 24.9487,10.3087 24.9857,9.3087 C25.5267,4.4057 27.3617,1.8677 32.7077,2.1867 C34.8737,2.3367 35.3667,2.9147 36.3667,3.2627 C36.6847,3.4147 36.8177,3.4437 37.0477,3.4987 C37.7547,3.6627 38.3347,2.9097 37.9797,2.2677 C36.4957,-0.4183 28.1757,-1.3893 25.0697,3.1567 C21.2767,8.3047 23.4337,22.2357 31.9987,22.5307 M45.2647,54.3347 C40.0677,53.9377 23.5457,53.7817 18.6447,54.4837 C17.9497,54.5827 17.9497,55.5927 18.6447,55.6927 C23.5797,56.3997 40.1517,56.2327 45.2647,55.8417 C45.6297,55.8147 45.9307,55.5227 45.9597,55.1457 C45.9917,54.7297 45.6807,54.3667 45.2647,54.3347 M19.1407,52.3677 C19.1407,52.3677 19.2397,51.4887 19.3037,50.1707 C19.3947,48.1137 19.5377,40.8367 19.0877,38.3057 C18.9317,37.4347 17.6747,37.4307 17.5187,38.3057 C17.0827,40.7557 17.2017,47.8697 17.3027,50.1707 C17.3677,51.4887 17.4657,52.3677 17.4657,52.3677 C17.5077,52.7507 17.8107,53.0677 18.2097,53.1117 C18.6727,53.1637 19.0897,52.8307 19.1407,52.3677 M18.6447,34.8017 C17.9387,34.9027 17.9357,35.9327 18.6447,36.0327 C18.6447,36.0327 25.4597,36.9787 41.1047,36.2937 C43.6007,36.1807 45.2647,36.0327 45.2647,36.0327 C45.5557,36.0057 45.7957,35.7747 45.8237,35.4717 C45.8547,35.1327 45.6027,34.8337 45.2647,34.8017 C45.2647,34.8017 43.6007,34.6537 41.1047,34.5417 C36.1127,34.3227 23.6327,34.0997 18.6447,34.8017 M46.3757,38.1787 C46.3097,37.9427 46.1257,37.7447 45.8717,37.6757 C45.4897,37.5707 45.0947,37.7967 44.9897,38.1787 C44.3687,40.4517 44.5167,49.9667 44.8877,52.0537 C44.9467,52.3767 45.1987,52.6457 45.5397,52.7067 C45.9797,52.7857 46.3997,52.4927 46.4777,52.0537 C46.8507,49.9567 46.9987,40.4647 46.3757,38.1787" id="Fill-45"></path>
                    </g>
                </g>
            </g>
        </g>
    </g>
</svg>